<svg width="10" height="18" viewBox="0 0 10 18" fill="none" xmlns="http://www.w3.org/2000/svg">
<path d="M7.72478 9.01593C7.12429 8.37273 6.55535 7.76386 5.98686 7.15404C4.39785 5.45139 2.80972 3.74779 1.22025 2.04609C1.10247 1.92022 1.00957 1.78624 1.00602 1.59981C1.00157 1.35569 1.10069 1.1726 1.30204 1.06484C1.50428 0.956607 1.70029 0.986168 1.87764 1.13636C1.9252 1.17689 1.96654 1.226 2.00965 1.27225C4.2525 3.67817 6.49535 6.08458 8.7382 8.49098C9.08623 8.86431 9.08712 9.13895 8.74175 9.50942C6.4909 11.9239 4.24006 14.3384 1.99054 16.7539C1.86564 16.8884 1.73496 17.0009 1.54739 16.9999C1.31937 16.999 1.15225 16.8855 1.05535 16.669C0.961123 16.4578 0.989125 16.2518 1.12469 16.0668C1.16203 16.0158 1.20825 15.972 1.25137 15.9257C3.35732 13.6676 5.46327 11.409 7.5701 9.15182C7.61277 9.10653 7.66344 9.06934 7.72478 9.01593Z" fill="#D63348" stroke="#D63348" stroke-width="1.5"/>
</svg>
