<svg width="179" height="179" viewBox="0 0 179 179" fill="none" xmlns="http://www.w3.org/2000/svg">
<path d="M67 171.986C75.0081 171.986 81.5 165.494 81.5 157.486C81.5 149.478 75.0081 142.986 67 142.986C58.9919 142.986 52.5 149.478 52.5 157.486C52.5 165.494 58.9919 171.986 67 171.986Z" stroke="#C7C7C7" stroke-width="14" stroke-linecap="round" stroke-linejoin="round"/>
<path d="M149.5 171.986C157.508 171.986 164 165.494 164 157.486C164 149.478 157.508 142.986 149.5 142.986C141.492 142.986 135 149.478 135 157.486C135 165.494 141.492 171.986 149.5 171.986Z" stroke="#C7C7C7" stroke-width="14" stroke-linecap="round" stroke-linejoin="round"/>
<path d="M7 7.48584C18.7157 7.48584 37 7.48584 37 7.48584L57.1 107.911C57.7858 111.364 59.6643 114.466 62.4066 116.673C65.1489 118.881 68.5802 120.053 72.1 119.986H145C148.52 120.053 151.951 118.881 154.693 116.673C157.436 114.466 159.314 111.364 160 107.911L172 44.9858C172 44.9858 94.2918 44.9858 44.5 44.9858" stroke="#C7C7C7" stroke-width="14" stroke-linecap="round" stroke-linejoin="round"/>
</svg>
