<svg width="17" height="23" viewBox="0 0 17 23" fill="none" xmlns="http://www.w3.org/2000/svg">
<path d="M8.32485 23.0003C8.13918 22.8575 7.93814 22.7315 7.77021 22.5701C5.60486 20.484 3.68607 18.1926 2.16583 15.5748C1.27059 14.0341 0.571081 12.4129 0.201516 10.6519C-0.664745 6.52099 1.31672 2.49026 5.08983 0.738892C8.53122 -0.85888 12.778 0.204301 15.1325 3.27085C16.9165 5.59401 17.3718 8.20876 16.7125 11.0461C16.2803 12.9085 15.4578 14.6005 14.4596 16.2084C12.9973 18.5646 11.2222 20.6591 9.23369 22.5713C9.06576 22.7327 8.86413 22.8581 8.67846 23.0003C8.56079 23.0003 8.44312 23.0003 8.32485 23.0003ZM13.222 8.77515C13.3391 6.1844 11.2897 3.96804 8.65776 3.83904C6.1051 3.71424 3.91313 5.7914 3.78246 8.45896C3.65473 11.0683 5.71898 13.3003 8.36802 13.4185C10.9195 13.5325 13.1008 11.4457 13.222 8.77515Z" fill="white"/>
</svg>
